<mxfile host="app.diagrams.net" modified="2022-01-21T16:21:04.531Z" agent="5.0 (Windows NT 10.0; Win64; x64) AppleWebKit/537.36 (KHTML, like Gecko) Chrome/97.0.4692.71 Safari/537.36" etag="9HgbFAXZccILCDqXYAj_" version="16.4.3" type="github">
  <diagram id="OMNXwoLTVznzMtbhmNE3" name="Page-1">
    <mxGraphModel dx="1888" dy="575" grid="1" gridSize="10" guides="1" tooltips="1" connect="1" arrows="1" fold="1" page="1" pageScale="1" pageWidth="850" pageHeight="1100" math="0" shadow="0">
      <root>
        <mxCell id="0" />
        <mxCell id="1" parent="0" />
        <mxCell id="A98QGgMZvMYwiUMWrgKy-6" style="edgeStyle=orthogonalEdgeStyle;rounded=0;orthogonalLoop=1;jettySize=auto;html=1;entryX=-0.027;entryY=0.86;entryDx=0;entryDy=0;entryPerimeter=0;" edge="1" parent="1" source="A98QGgMZvMYwiUMWrgKy-1" target="A98QGgMZvMYwiUMWrgKy-2">
          <mxGeometry relative="1" as="geometry" />
        </mxCell>
        <mxCell id="A98QGgMZvMYwiUMWrgKy-1" value="&lt;b&gt;&amp;lt;&amp;lt;interface&amp;gt;&amp;gt;&lt;br&gt;Subject&lt;/b&gt;&lt;br&gt;-----------------------------&lt;br&gt;registerObserver()&lt;br&gt;removeObserver()&lt;br&gt;notifyObserver()" style="rounded=0;whiteSpace=wrap;html=1;" vertex="1" parent="1">
          <mxGeometry x="160" y="130" width="120" height="120" as="geometry" />
        </mxCell>
        <mxCell id="A98QGgMZvMYwiUMWrgKy-2" value="&lt;b&gt;&amp;lt;&amp;lt;interface&amp;gt;&amp;gt;&lt;br&gt;Observer&lt;br&gt;&lt;/b&gt;-----------------------------&lt;br&gt;update()" style="rounded=0;whiteSpace=wrap;html=1;" vertex="1" parent="1">
          <mxGeometry x="550" y="130" width="120" height="70" as="geometry" />
        </mxCell>
        <mxCell id="A98QGgMZvMYwiUMWrgKy-5" style="edgeStyle=orthogonalEdgeStyle;rounded=0;orthogonalLoop=1;jettySize=auto;html=1;entryX=1;entryY=0.5;entryDx=0;entryDy=0;" edge="1" parent="1" source="A98QGgMZvMYwiUMWrgKy-3" target="A98QGgMZvMYwiUMWrgKy-4">
          <mxGeometry relative="1" as="geometry" />
        </mxCell>
        <mxCell id="A98QGgMZvMYwiUMWrgKy-3" value="&lt;b&gt;ConcreteObserver&lt;/b&gt;&lt;br&gt;-----------------------------&lt;br&gt;&lt;div style=&quot;text-align: left&quot;&gt;&lt;span&gt;update()&lt;/span&gt;&lt;/div&gt;&lt;div style=&quot;text-align: left&quot;&gt;&lt;span&gt;//other observer specific method&lt;/span&gt;&lt;/div&gt;" style="rounded=0;whiteSpace=wrap;html=1;" vertex="1" parent="1">
          <mxGeometry x="540" y="385" width="140" height="100" as="geometry" />
        </mxCell>
        <mxCell id="A98QGgMZvMYwiUMWrgKy-4" value="&lt;b&gt;ConcreteSubject&lt;/b&gt;&lt;br&gt;-----------------------------&lt;br&gt;&lt;div style=&quot;text-align: left&quot;&gt;&lt;span&gt;registerObserver()&lt;/span&gt;&lt;/div&gt;&lt;div style=&quot;text-align: left&quot;&gt;&lt;span&gt;removeObserver()&lt;/span&gt;&lt;/div&gt;&lt;div style=&quot;text-align: left&quot;&gt;&lt;span&gt;notifyObserver()&lt;/span&gt;&lt;/div&gt;&lt;div style=&quot;text-align: left&quot;&gt;&lt;br&gt;&lt;/div&gt;&lt;div style=&quot;text-align: left&quot;&gt;&lt;span&gt;getState()&lt;/span&gt;&lt;/div&gt;&lt;div style=&quot;text-align: left&quot;&gt;&lt;span&gt;setState()&lt;/span&gt;&lt;/div&gt;" style="rounded=0;whiteSpace=wrap;html=1;" vertex="1" parent="1">
          <mxGeometry x="160" y="370" width="120" height="130" as="geometry" />
        </mxCell>
        <mxCell id="A98QGgMZvMYwiUMWrgKy-7" value="" style="endArrow=block;dashed=1;html=1;dashPattern=1 3;strokeWidth=2;rounded=0;entryX=0.65;entryY=1.008;entryDx=0;entryDy=0;entryPerimeter=0;exitX=0.643;exitY=-0.005;exitDx=0;exitDy=0;exitPerimeter=0;endFill=0;" edge="1" parent="1" source="A98QGgMZvMYwiUMWrgKy-4" target="A98QGgMZvMYwiUMWrgKy-1">
          <mxGeometry width="50" height="50" relative="1" as="geometry">
            <mxPoint x="400" y="370" as="sourcePoint" />
            <mxPoint x="450" y="320" as="targetPoint" />
          </mxGeometry>
        </mxCell>
        <mxCell id="A98QGgMZvMYwiUMWrgKy-8" value="" style="endArrow=block;dashed=1;html=1;dashPattern=1 3;strokeWidth=2;rounded=0;entryX=0.5;entryY=1;entryDx=0;entryDy=0;exitX=0.5;exitY=0;exitDx=0;exitDy=0;endFill=0;" edge="1" parent="1" source="A98QGgMZvMYwiUMWrgKy-3" target="A98QGgMZvMYwiUMWrgKy-2">
          <mxGeometry width="50" height="50" relative="1" as="geometry">
            <mxPoint x="610" y="380" as="sourcePoint" />
            <mxPoint x="640" y="240" as="targetPoint" />
          </mxGeometry>
        </mxCell>
        <mxCell id="A98QGgMZvMYwiUMWrgKy-9" value="subject" style="text;html=1;align=center;verticalAlign=middle;resizable=0;points=[];autosize=1;strokeColor=none;fillColor=none;" vertex="1" parent="1">
          <mxGeometry x="295" y="410" width="50" height="20" as="geometry" />
        </mxCell>
        <mxCell id="A98QGgMZvMYwiUMWrgKy-10" value="observer&lt;br&gt;" style="text;html=1;align=center;verticalAlign=middle;resizable=0;points=[];autosize=1;strokeColor=none;fillColor=none;" vertex="1" parent="1">
          <mxGeometry x="460" y="160" width="60" height="20" as="geometry" />
        </mxCell>
        <mxCell id="A98QGgMZvMYwiUMWrgKy-11" value="" style="curved=1;endArrow=classic;html=1;rounded=0;entryX=0.533;entryY=-0.09;entryDx=0;entryDy=0;entryPerimeter=0;" edge="1" parent="1" target="A98QGgMZvMYwiUMWrgKy-10">
          <mxGeometry width="50" height="50" relative="1" as="geometry">
            <mxPoint x="420" y="90" as="sourcePoint" />
            <mxPoint x="460" y="150" as="targetPoint" />
            <Array as="points">
              <mxPoint x="370" y="120" />
              <mxPoint x="440" y="140" />
              <mxPoint x="440" y="90" />
              <mxPoint x="490" y="110" />
            </Array>
          </mxGeometry>
        </mxCell>
        <mxCell id="A98QGgMZvMYwiUMWrgKy-12" value="Mỗi subject có thể có nhiều observer" style="text;html=1;align=center;verticalAlign=middle;resizable=0;points=[];autosize=1;strokeColor=none;fillColor=none;" vertex="1" parent="1">
          <mxGeometry x="345" y="60" width="210" height="20" as="geometry" />
        </mxCell>
        <mxCell id="A98QGgMZvMYwiUMWrgKy-13" value="Đây là giao diện Subject.&lt;br&gt;Các đối tượng sử dụng giao diện&lt;br&gt;này để đăng ký làm người quan sát&lt;br&gt;cũng như loại bỏ bản thân khỏi vị trí này&amp;nbsp;" style="text;html=1;align=center;verticalAlign=middle;resizable=0;points=[];autosize=1;strokeColor=none;fillColor=none;" vertex="1" parent="1">
          <mxGeometry x="30" y="50" width="230" height="60" as="geometry" />
        </mxCell>
        <mxCell id="A98QGgMZvMYwiUMWrgKy-14" value="Một subject con luôn &lt;br&gt;implement giao diện&lt;br&gt;Subject.&lt;br&gt;Ngoài các phương thức&amp;nbsp;&lt;br&gt;register và remove,&amp;nbsp;&lt;br&gt;nó còn thực hiện phương&lt;br&gt;thức notifyObserver() để&lt;br&gt;cập nhật tất cả các Observer&amp;nbsp;&lt;br&gt;mỗi khi thay đổi trạng thái." style="text;html=1;align=center;verticalAlign=middle;resizable=0;points=[];autosize=1;strokeColor=none;fillColor=none;" vertex="1" parent="1">
          <mxGeometry x="-20" y="355" width="170" height="130" as="geometry" />
        </mxCell>
        <mxCell id="A98QGgMZvMYwiUMWrgKy-15" value="Tất các những observer tiềm năng&lt;br&gt;đều phải implement lại Observer này.&lt;br&gt;Nó chỉ có một phương thức duy nhất là&amp;nbsp;&lt;br&gt;update(), được gọi khi trạng thái &lt;br&gt;Subject thay đổi.&amp;nbsp;" style="text;html=1;align=center;verticalAlign=middle;resizable=0;points=[];autosize=1;strokeColor=none;fillColor=none;" vertex="1" parent="1">
          <mxGeometry x="615" y="50" width="230" height="80" as="geometry" />
        </mxCell>
        <mxCell id="A98QGgMZvMYwiUMWrgKy-16" value="ConcreteObserver có thể là&lt;br&gt;bất kỳ lớp nào implements&amp;nbsp;&lt;br&gt;Observer interface. Mỗi observer&amp;nbsp;&lt;br&gt;đăng ký với một subject cụ thể để&lt;br&gt;có thể nhận được cập nhật" style="text;html=1;align=center;verticalAlign=middle;resizable=0;points=[];autosize=1;strokeColor=none;fillColor=none;" vertex="1" parent="1">
          <mxGeometry x="635" y="290" width="190" height="80" as="geometry" />
        </mxCell>
        <mxCell id="A98QGgMZvMYwiUMWrgKy-17" value="ConcreteSubject&amp;nbsp;&lt;br&gt;cũng có các phương thức&lt;br&gt;get và set của riêng nó." style="text;html=1;align=center;verticalAlign=middle;resizable=0;points=[];autosize=1;strokeColor=none;fillColor=none;" vertex="1" parent="1">
          <mxGeometry x="280" y="525" width="150" height="50" as="geometry" />
        </mxCell>
        <mxCell id="A98QGgMZvMYwiUMWrgKy-18" value="" style="curved=1;endArrow=classic;html=1;rounded=0;entryX=0.5;entryY=1;entryDx=0;entryDy=0;" edge="1" parent="1" source="A98QGgMZvMYwiUMWrgKy-17" target="A98QGgMZvMYwiUMWrgKy-4">
          <mxGeometry width="50" height="50" relative="1" as="geometry">
            <mxPoint x="400" y="370" as="sourcePoint" />
            <mxPoint x="450" y="320" as="targetPoint" />
            <Array as="points">
              <mxPoint x="260" y="530" />
              <mxPoint x="250" y="520" />
              <mxPoint x="260" y="540" />
              <mxPoint x="210" y="560" />
              <mxPoint x="200" y="520" />
              <mxPoint x="220" y="540" />
            </Array>
          </mxGeometry>
        </mxCell>
      </root>
    </mxGraphModel>
  </diagram>
</mxfile>
